<?xml version="1.0" encoding="UTF-8" standalone="no" ?>
<!DOCTYPE svg PUBLIC "-//W3C//DTD SVG 1.1//EN" "http://www.w3.org/Graphics/SVG/1.1/DTD/svg11.dtd">
<svg xmlns="http://www.w3.org/2000/svg" xmlns:xlink="http://www.w3.org/1999/xlink" version="1.1" width="110" height="95" viewBox="0 0 110 95" xml:space="preserve">
<desc>Created with Fabric.js 3.6.3</desc>
<defs>
</defs>
<g transform="matrix(-0.97 -0.26 0.26 -0.97 58.09 51.06)" id="Calque_1"  >
<path style="stroke: none; stroke-width: 1; stroke-dasharray: none; stroke-linecap: butt; stroke-dashoffset: 0; stroke-linejoin: miter; stroke-miterlimit: 4; fill: rgb(242,204,39); fill-rule: nonzero; opacity: 1;"  transform=" translate(-49.96, -50)" d="M 86.5 55.3 c -1 -1 -2.7 -1 -3.7 0 l -1.9 1.9 l -3.2 -20.8 C 91.5 22.4 101.3 9.2 96.1 3.9 c -5.2 -5.2 -18.5 4.6 -32.5 18.3 l -20.8 -3.2 l 1.9 -1.9 c 1 -1 1 -2.7 0 -3.7 l -2 -2 c -1 -1 -2.7 -1 -3.7 0 l -6.1 6.1 l -18.2 -2.8 C 13.4 14.6 12 15.1 11 16 l -5 5 c -0.9 0.9 -0.6 2.3 0.6 2.8 l 40.1 16.1 c -8.6 9.6 -16.4 19 -21.6 25.3 L 8.7 63.7 c -1 -0.1 -2 0.3 -2.7 1 l -3.2 3.2 c -0.7 0.7 -0.4 1.8 0.4 2.1 l 18.8 7.9 L 30 96.7 c 0.4 0.9 1.5 1.1 2.1 0.4 l 3.2 -3.2 c 0.7 -0.7 1.1 -1.7 1 -2.7 l -1.4 -16.4 c 6.3 -5.1 15.7 -12.9 25.3 -21.6 l 16.1 40.1 c 0.5 1.1 1.9 1.4 2.8 0.6 l 5 -5 c 1 -1 1.4 -2.4 1.2 -3.7 l -2.8 -18.2 l 6.1 -6.1 c 1 -1 1 -2.7 0 -3.7 L 86.5 55.3 z" stroke-linecap="round" />
</g>
</svg>