<?xml version="1.0" ?><!DOCTYPE svg  PUBLIC '-//W3C//DTD SVG 1.1//EN'  'http://www.w3.org/Graphics/SVG/1.1/DTD/svg11.dtd'><svg id="Calque_1" style="enable-background:new 0 0 100 100;" version="1.1" viewBox="0 0 100 100" xml:space="preserve" xmlns="http://www.w3.org/2000/svg" xmlns:xlink="http://www.w3.org/1999/xlink"><g><path d="M86.5,55.3c-1-1-2.7-1-3.7,0l-1.9,1.9l-3.2-20.8C91.5,22.4,101.3,9.2,96.1,3.9c-5.2-5.2-18.5,4.6-32.5,18.3l-20.8-3.2    l1.9-1.9c1-1,1-2.7,0-3.7l-2-2c-1-1-2.7-1-3.7,0l-6.1,6.1l-18.2-2.8C13.4,14.6,12,15.1,11,16l-5,5c-0.9,0.9-0.6,2.3,0.6,2.8    l40.1,16.1c-8.6,9.6-16.4,19-21.6,25.3L8.7,63.7c-1-0.1-2,0.3-2.7,1l-3.2,3.2c-0.7,0.7-0.4,1.8,0.4,2.1l18.8,7.9L30,96.7    c0.4,0.9,1.5,1.1,2.1,0.4l3.2-3.2c0.7-0.7,1.1-1.7,1-2.7l-1.4-16.4c6.3-5.1,15.7-12.9,25.3-21.6l16.1,40.1    c0.5,1.1,1.9,1.4,2.8,0.6l5-5c1-1,1.4-2.4,1.2-3.7l-2.8-18.2l6.1-6.1c1-1,1-2.7,0-3.7L86.5,55.3z"/></g></svg>