<?xml version="1.0"?>
<!DOCTYPE svg PUBLIC '-//W3C//DTD SVG 1.1//EN' 'http://www.w3.org/Graphics/SVG/1.1/DTD/svg11.dtd'>
<svg id="icon-aircraft" version="1.1" viewBox="0 0 40 40" xml:space="preserve" xmlns="http://www.w3.org/2000/svg" xmlns:xlink="http://www.w3.org/1999/xlink">
    <g>
        <path style="fill: #F8C024;" d="M33.5,22.5c-1.9,0.1-6.7-0.1-6.7-0.1s-8.2,11.6-9.5,11.5c-1.2-0.1-2.6-0.4-2.6-0.4s6-11.4,4.5-11.3
                c-1.5,0.1-8.1-0.2-8.1-0.2S7.4,26.6,7,26.5c-0.4,0-2.2-0.2-2.2-0.2s2.1-5.2,2.1-6.4c0,0,0,0,0-0.1l0,0c0-1.2-2.1-6.4-2.1-6.4
                s1.7-0.2,2.2-0.2c0.4,0,4.2,4.5,4.2,4.5s6.6-0.3,8.1-0.2c1.5,0.1-4.5-11.3-4.5-11.3S16,6,17.3,5.9c1.3,0.1,9.6,11.7,9.6,11.7
                s4.8-0.1,6.7-0.1c1.9,0.1,3.1,2.5,3.1,2.5l0,0C36.6,20.2,35.4,22.5,33.5,22.5z" />
    </g>
</svg>