<?xml version="1.0"?>
<!DOCTYPE svg PUBLIC '-//W3C//DTD SVG 1.1//EN' 'http://www.w3.org/Graphics/SVG/1.1/DTD/svg11.dtd'>
<svg id="icon-landing" version="1.1" viewBox="0 0 40 40" xml:space="preserve" xmlns="http://www.w3.org/2000/svg" xmlns:xlink="http://www.w3.org/1999/xlink">
    <g>
        <path style="fill: #F8C024;" d="M33.9,28.1c-0.4-2.1-1-2.4-3.7-3.6l-6.9-2.8l-0.1-0.1c-1.6-3-3.7-6.8-5.7-10.6c-0.2-0.4-0.4-0.5-0.9-0.7
		l-1-0.4c-0.3-0.1-0.5-0.2-0.4,0.1c0.4,2.6,0.9,6.3,1.2,9c0,0.2-0.2,0.3-0.3,0.3c-1.1-0.4-4.1-1.5-4.6-1.7c-0.1,0-0.1-0.1-0.1-0.1
		c-1.4-1.7-2.2-3-3.2-4.3l-2.2-0.7c0.8,4.1,1,4.6,1.5,7.3c0.1,0.8,0.7,0.8,1.6,1.1l21.4,7.6C32.1,29.1,33.5,29.2,33.9,28.1z" />
    </g>
</svg>