<?xml version="1.0"?>
<!DOCTYPE svg PUBLIC '-//W3C//DTD SVG 1.1//EN' 'http://www.w3.org/Graphics/SVG/1.1/DTD/svg11.dtd'>
<svg id="icon-aircraft" version="1.1" viewBox="0 0 40 40" xml:space="preserve" xmlns="http://www.w3.org/2000/svg" xmlns:xlink="http://www.w3.org/1999/xlink">
    <g>
        <path d="M11.9,39.1l-0.1-1.3c0,0-0.2-1.9-0.2-2.3c-0.1-0.6-0.1-1,5.1-5.3c-0.1-1.4-0.2-5.6-0.2-7.7
        c-1.9,0.5-6.8,2.9-11,5.1l-1.2,0.6L4,26.8c0-0.1-0.3-1.5-0.4-2.9C3.5,23.3,3.4,22,16.3,12.7c0-1.4-0.1-5.3,0-7
        c0.1-2.7,3.2-4.2,3.3-4.3L20,1.2l0.5,0.2c0.3,0.2,3.2,1.8,3.3,4.3l0,0c0.1,1.8,0,5.6,0,7C36.6,22,36.5,23.3,36.4,23.9
        c-0.1,1.4-0.4,2.9-0.4,2.9l-0.3,1.3l-1.2-0.6c-4.1-2.2-9.1-4.6-11-5.1c0,2.1-0.1,6.3-0.2,7.7c5.2,4.3,5.1,4.7,5.1,5.3
        c-0.1,0.4-0.2,2.3-0.2,2.3L28.1,39l-1.2-0.4c0,0-6-1.9-7.1-2.3c-0.9,0.1-4.1,1.2-6.7,2.2L11.9,39.1z M20,34.3c0.2,0,0.2,0,6.4,2
        c0-0.3,0.1-0.6,0.1-0.8c-0.6-0.7-2.8-2.6-4.7-4.2L21.4,31l0-0.5c0.1-2.5,0.3-7.6,0.2-8.9c0-0.5,0.2-0.9,0.5-1.1
        c0.5-0.3,1.6-1,12.2,4.6c0.1-0.4,0.1-0.8,0.2-1.2c-0.8-1.2-6.8-5.9-12.3-9.8l-0.4-0.3l0-0.5c0-0.1,0.2-5.4,0.1-7.4l0,0
        c0-1-1.1-1.9-1.8-2.4c-0.7,0.5-1.7,1.3-1.8,2.3c-0.1,2.1,0.1,7.4,0.1,7.4l0,0.5l-0.4,0.3C12.4,18,6.4,22.6,5.6,23.9
        c0,0.4,0.1,0.8,0.2,1.2c10.6-5.6,11.7-4.9,12.2-4.6c0.4,0.2,0.6,0.7,0.5,1.1c-0.1,1.3,0.1,6.4,0.2,8.9l0,0.5l-0.4,0.3
        c-1.9,1.6-4.1,3.5-4.7,4.2c0,0.2,0,0.5,0.1,0.7C15.6,35.5,18.8,34.3,20,34.3z M13.5,35.2C13.5,35.2,13.5,35.2,13.5,35.2
        C13.5,35.2,13.5,35.2,13.5,35.2z M5.5,24L5.5,24L5.5,24z" fill="#f2cc27" transform="rotate(45deg)" />
    </g>
</svg>