<?xml version="1.0" encoding="UTF-8" standalone="no" ?>
<!DOCTYPE svg PUBLIC "-//W3C//DTD SVG 1.1//EN" "http://www.w3.org/Graphics/SVG/1.1/DTD/svg11.dtd">
<svg xmlns="http://www.w3.org/2000/svg" xmlns:xlink="http://www.w3.org/1999/xlink" version="1.1" width="38" height="33" viewBox="0 0 38 33" xml:space="preserve">
<desc>Created with Fabric.js 3.6.3</desc>
<defs>
</defs>
<g transform="matrix(0 1 -1 0 19.45 16.92)" id="icon-aircraft"  >
<path style="stroke: none; stroke-width: 1; stroke-dasharray: none; stroke-linecap: butt; stroke-dashoffset: 0; stroke-linejoin: miter; stroke-miterlimit: 4; fill: rgb(242,204,39); fill-rule: nonzero; opacity: 1;"  transform=" translate(-20, -20.15)" d="M 11.9 39.1 l -0.1 -1.3 c 0 0 -0.2 -1.9 -0.2 -2.3 c -0.1 -0.6 -0.1 -1 5.1 -5.3 c -0.1 -1.4 -0.2 -5.6 -0.2 -7.7 c -1.9 0.5 -6.8 2.9 -11 5.1 l -1.2 0.6 L 4 26.8 c 0 -0.1 -0.3 -1.5 -0.4 -2.9 C 3.5 23.3 3.4 22 16.3 12.7 c 0 -1.4 -0.1 -5.3 0 -7 c 0.1 -2.7 3.2 -4.2 3.3 -4.3 L 20 1.2 l 0.5 0.2 c 0.3 0.2 3.2 1.8 3.3 4.3 l 0 0 c 0.1 1.8 0 5.6 0 7 C 36.6 22 36.5 23.3 36.4 23.9 c -0.1 1.4 -0.4 2.9 -0.4 2.9 l -0.3 1.3 l -1.2 -0.6 c -4.1 -2.2 -9.1 -4.6 -11 -5.1 c 0 2.1 -0.1 6.3 -0.2 7.7 c 5.2 4.3 5.1 4.7 5.1 5.3 c -0.1 0.4 -0.2 2.3 -0.2 2.3 L 28.1 39 l -1.2 -0.4 c 0 0 -6 -1.9 -7.1 -2.3 c -0.9 0.1 -4.1 1.2 -6.7 2.2 L 11.9 39.1 z M 20 34.3 c 0.2 0 0.2 0 6.4 2 c 0 -0.3 0.1 -0.6 0.1 -0.8 c -0.6 -0.7 -2.8 -2.6 -4.7 -4.2 L 21.4 31 l 0 -0.5 c 0.1 -2.5 0.3 -7.6 0.2 -8.9 c 0 -0.5 0.2 -0.9 0.5 -1.1 c 0.5 -0.3 1.6 -1 12.2 4.6 c 0.1 -0.4 0.1 -0.8 0.2 -1.2 c -0.8 -1.2 -6.8 -5.9 -12.3 -9.8 l -0.4 -0.3 l 0 -0.5 c 0 -0.1 0.2 -5.4 0.1 -7.4 l 0 0 c 0 -1 -1.1 -1.9 -1.8 -2.4 c -0.7 0.5 -1.7 1.3 -1.8 2.3 c -0.1 2.1 0.1 7.4 0.1 7.4 l 0 0.5 l -0.4 0.3 C 12.4 18 6.4 22.6 5.6 23.9 c 0 0.4 0.1 0.8 0.2 1.2 c 10.6 -5.6 11.7 -4.9 12.2 -4.6 c 0.4 0.2 0.6 0.7 0.5 1.1 c -0.1 1.3 0.1 6.4 0.2 8.9 l 0 0.5 l -0.4 0.3 c -1.9 1.6 -4.1 3.5 -4.7 4.2 c 0 0.2 0 0.5 0.1 0.7 C 15.6 35.5 18.8 34.3 20 34.3 z M 13.5 35.2 C 13.5 35.2 13.5 35.2 13.5 35.2 C 13.5 35.2 13.5 35.2 13.5 35.2 z M 5.5 24 L 5.5 24 L 5.5 24 z" stroke-linecap="round" />
</g>
</svg>